# MagicaVoxel @ Ephtracy

# group
o 

# material
mtllib untitled.mtl
usemtl palette

# normals
vn -1 0 0
vn 1 0 0
vn 0 0 1
vn 0 0 -1
vn 0 -1 0
vn 0 1 0

# texcoords
vt 0.232422 0.5
vt 0.869141 0.5
vt 0.962891 0.5
vt 0.966797 0.5
vt 0.970703 0.5
vt 0.982422 0.5
vt 0.994141 0.5

# verts
v -0.8 0 0.1
v -0.8 0 -0.1
v -0.8 0.2 0.1
v -0.8 0.2 -0.1
v -0.7 0.2 0.1
v -0.7 0.2 -0.1
v -0.7 0.3 0.1
v -0.7 0.3 -0.1
v -0.7 0.7 0.1
v -0.7 0.7 -0.1
v -0.7 0.9 0.1
v -0.7 0.9 -0.1
v -0.6 0.3 0.1
v -0.6 0.3 -0.1
v -0.6 0.4 0.1
v -0.6 0.4 -0.1
v -0.6 0.5 0.1
v -0.6 0.5 -0.1
v -0.6 0.6 0.1
v -0.6 0.6 -0.1
v -0.6 0.7 0.1
v -0.6 0.7 -0.1
v -0.5 0.4 0.1
v -0.5 0.4 -0.1
v -0.5 0.5 0.1
v -0.5 0.5 -0.1
v -0.4 0.8 0.1
v -0.4 0.8 -0.1
v -0.4 0.9 0.1
v -0.4 0.9 -0.1
v -0.3 0.6 0.2
v -0.3 0.6 0.1
v -0.3 0.6 -0.1
v -0.3 0.6 -0.2
v -0.3 0.7 0.2
v -0.3 0.7 0.1
v -0.3 0.7 -0.1
v -0.3 0.7 -0.2
v -0.3 0.8 0.2
v -0.3 0.8 0.1
v -0.3 0.8 -0.1
v -0.3 0.8 -0.2
v -0.3 0.9 0.2
v -0.3 0.9 0.1
v -0.3 0.9 -0.1
v -0.3 0.9 -0.2
v 0 0.4 0.1
v 0 0.4 -0.1
v 0 0.5 0.1
v 0 0.5 -0.1
v 0.8 0.8 0.1
v 0.8 0.8 -0.1
v 0.8 0.9 0.1
v 0.8 0.9 -0.1
v -0.6 0.8 0.1
v -0.6 0.8 -0.1
v -0.6 0.9 0.1
v -0.6 0.9 -0.1
v -0.4 0 0.1
v -0.4 0 -0.1
v -0.4 0.2 0.1
v -0.4 0.2 -0.1
v -0.3 0.2 0.1
v -0.3 0.2 -0.1
v -0.3 0.3 0.1
v -0.3 0.3 -0.1
v -0.1 0.4 0.1
v -0.1 0.4 -0.1
v -0.1 0.5 0.1
v -0.1 0.5 -0.1
v 0 0.3 0.1
v 0 0.3 -0.1
v 0 0.4 0.1
v 0 0.4 -0.1
v 0.1 0.4 0.1
v 0.1 0.4 -0.1
v 0.1 0.5 0.1
v 0.1 0.5 -0.1
v 0.2 0.6 0.2
v 0.2 0.6 0.1
v 0.2 0.6 -0.1
v 0.2 0.6 -0.2
v 0.2 0.7 0.2
v 0.2 0.7 0.1
v 0.2 0.7 -0.1
v 0.2 0.7 -0.2
v 0.2 0.8 0.2
v 0.2 0.8 0.1
v 0.2 0.8 -0.1
v 0.2 0.8 -0.2
v 0.2 0.9 0.2
v 0.2 0.9 0.1
v 0.2 0.9 -0.1
v 0.2 0.9 -0.2
v 0.9 0.8 0.1
v 0.9 0.8 -0.1
v 0.9 0.9 0.1
v 0.9 0.9 -0.1
v 1.2 0.5 0.1
v 1.2 0.5 -0.1
v 1.2 0.6 0.1
v 1.2 0.6 -0.1
v 1.2 0.7 0.1
v 1.2 0.7 -0.1
v 1.2 0.8 0.1
v 1.2 0.8 -0.1
v -0.3 0.6 0.2
v -0.3 0.7 0.2
v -0.3 0.8 0.2
v -0.3 0.9 0.2
v 0.2 0.6 0.2
v 0.2 0.7 0.2
v 0.2 0.8 0.2
v 0.2 0.9 0.2
v -0.8 0 0.1
v -0.8 0.2 0.1
v -0.7 0.1 0.1
v -0.7 0.2 0.1
v -0.7 0.3 0.1
v -0.7 0.7 0.1
v -0.7 0.9 0.1
v -0.6 0.2 0.1
v -0.6 0.3 0.1
v -0.6 0.4 0.1
v -0.6 0.5 0.1
v -0.6 0.6 0.1
v -0.6 0.7 0.1
v -0.6 0.8 0.1
v -0.6 0.9 0.1
v -0.5 0.1 0.1
v -0.5 0.2 0.1
v -0.5 0.3 0.1
v -0.5 0.4 0.1
v -0.5 0.5 0.1
v -0.5 0.7 0.1
v -0.5 0.8 0.1
v -0.4 0 0.1
v -0.4 0.2 0.1
v -0.4 0.3 0.1
v -0.4 0.6 0.1
v -0.4 0.7 0.1
v -0.4 0.8 0.1
v -0.4 0.9 0.1
v -0.3 0.2 0.1
v -0.3 0.3 0.1
v -0.3 0.4 0.1
v -0.3 0.6 0.1
v -0.3 0.7 0.1
v -0.3 0.8 0.1
v -0.3 0.9 0.1
v -0.2 0.3 0.1
v -0.2 0.4 0.1
v -0.2 0.5 0.1
v -0.1 0.4 0.1
v -0.1 0.5 0.1
v 0 0.3 0.1
v 0 0.4 0.1
v 0 0.5 0.1
v 0.1 0.4 0.1
v 0.1 0.5 0.1
v 0.2 0.6 0.1
v 0.2 0.7 0.1
v 0.2 0.8 0.1
v 0.8 0.8 0.1
v 0.8 0.9 0.1
v 0.9 0.8 0.1
v 0.9 0.9 0.1
v 1.2 0.5 0.1
v 1.2 0.6 0.1
v 1.2 0.7 0.1
v 1.2 0.8 0.1
v -0.8 0 -0.1
v -0.8 0.2 -0.1
v -0.7 0.1 -0.1
v -0.7 0.2 -0.1
v -0.7 0.3 -0.1
v -0.7 0.7 -0.1
v -0.7 0.9 -0.1
v -0.6 0.2 -0.1
v -0.6 0.3 -0.1
v -0.6 0.4 -0.1
v -0.6 0.5 -0.1
v -0.6 0.6 -0.1
v -0.6 0.7 -0.1
v -0.6 0.8 -0.1
v -0.6 0.9 -0.1
v -0.5 0.1 -0.1
v -0.5 0.2 -0.1
v -0.5 0.3 -0.1
v -0.5 0.4 -0.1
v -0.5 0.5 -0.1
v -0.5 0.7 -0.1
v -0.5 0.8 -0.1
v -0.4 0 -0.1
v -0.4 0.2 -0.1
v -0.4 0.3 -0.1
v -0.4 0.6 -0.1
v -0.4 0.7 -0.1
v -0.4 0.8 -0.1
v -0.4 0.9 -0.1
v -0.3 0.2 -0.1
v -0.3 0.3 -0.1
v -0.3 0.4 -0.1
v -0.3 0.6 -0.1
v -0.3 0.7 -0.1
v -0.3 0.8 -0.1
v -0.3 0.9 -0.1
v -0.2 0.3 -0.1
v -0.2 0.4 -0.1
v -0.2 0.5 -0.1
v -0.1 0.4 -0.1
v -0.1 0.5 -0.1
v 0 0.3 -0.1
v 0 0.4 -0.1
v 0 0.5 -0.1
v 0.1 0.4 -0.1
v 0.1 0.5 -0.1
v 0.2 0.6 -0.1
v 0.2 0.7 -0.1
v 0.2 0.8 -0.1
v 0.8 0.8 -0.1
v 0.8 0.9 -0.1
v 0.9 0.8 -0.1
v 0.9 0.9 -0.1
v 1.2 0.5 -0.1
v 1.2 0.6 -0.1
v 1.2 0.7 -0.1
v 1.2 0.8 -0.1
v -0.3 0.6 -0.2
v -0.3 0.7 -0.2
v -0.3 0.8 -0.2
v -0.3 0.9 -0.2
v 0.2 0.6 -0.2
v 0.2 0.7 -0.2
v 0.2 0.8 -0.2
v 0.2 0.9 -0.2
v -0.8 0 0.1
v -0.4 0 0.1
v -0.8 0 -0.1
v -0.4 0 -0.1
v -0.4 0.2 0.1
v -0.3 0.2 0.1
v -0.4 0.2 -0.1
v -0.3 0.2 -0.1
v -0.3 0.3 0.1
v -0.2 0.3 0.1
v 0 0.3 0.1
v -0.3 0.3 -0.1
v -0.2 0.3 -0.1
v 0 0.3 -0.1
v 0 0.4 0.1
v 0.1 0.4 0.1
v 0 0.4 -0.1
v 0.1 0.4 -0.1
v -0.6 0.5 0.1
v -0.5 0.5 0.1
v -0.1 0.5 0.1
v 0 0.5 0.1
v 0.1 0.5 0.1
v 1.2 0.5 0.1
v -0.6 0.5 -0.1
v -0.5 0.5 -0.1
v -0.1 0.5 -0.1
v 0 0.5 -0.1
v 0.1 0.5 -0.1
v 1.2 0.5 -0.1
v -0.3 0.6 0.2
v 0.2 0.6 0.2
v -0.3 0.6 0.1
v 0.2 0.6 0.1
v -0.3 0.6 -0.1
v 0.2 0.6 -0.1
v -0.3 0.6 -0.2
v 0.2 0.6 -0.2
v -0.7 0.7 0.1
v -0.6 0.7 0.1
v -0.7 0.7 -0.1
v -0.6 0.7 -0.1
v -0.8 0.2 0.1
v -0.7 0.2 0.1
v -0.8 0.2 -0.1
v -0.7 0.2 -0.1
v -0.7 0.3 0.1
v -0.6 0.3 0.1
v -0.7 0.3 -0.1
v -0.6 0.3 -0.1
v -0.6 0.4 0.1
v -0.5 0.4 0.1
v -0.1 0.4 0.1
v 0 0.4 0.1
v -0.6 0.4 -0.1
v -0.5 0.4 -0.1
v -0.1 0.4 -0.1
v 0 0.4 -0.1
v -0.6 0.8 0.1
v -0.5 0.8 0.1
v -0.4 0.8 0.1
v 0.2 0.8 0.1
v 0.8 0.8 0.1
v 0.9 0.8 0.1
v 1.2 0.8 0.1
v -0.6 0.8 -0.1
v -0.5 0.8 -0.1
v -0.4 0.8 -0.1
v 0.2 0.8 -0.1
v 0.8 0.8 -0.1
v 0.9 0.8 -0.1
v 1.2 0.8 -0.1
v -0.3 0.9 0.2
v 0.2 0.9 0.2
v -0.7 0.9 0.1
v -0.6 0.9 0.1
v -0.4 0.9 0.1
v -0.3 0.9 0.1
v 0.2 0.9 0.1
v 0.8 0.9 0.1
v 0.9 0.9 0.1
v -0.7 0.9 -0.1
v -0.6 0.9 -0.1
v -0.4 0.9 -0.1
v -0.3 0.9 -0.1
v 0.2 0.9 -0.1
v 0.8 0.9 -0.1
v 0.9 0.9 -0.1
v -0.3 0.9 -0.2
v 0.2 0.9 -0.2

# faces
f 3/1/1 2/1/1 1/1/1
f 4/1/1 2/1/1 3/1/1
f 7/1/1 6/1/1 5/1/1
f 8/1/1 6/1/1 7/1/1
f 11/3/1 10/3/1 9/3/1
f 12/3/1 10/3/1 11/3/1
f 15/1/1 14/1/1 13/1/1
f 16/1/1 14/1/1 15/1/1
f 19/4/1 18/4/1 17/4/1
f 20/4/1 18/4/1 19/4/1
f 21/3/1 20/3/1 19/3/1
f 22/3/1 20/3/1 21/3/1
f 25/1/1 24/1/1 23/1/1
f 26/1/1 24/1/1 25/1/1
f 29/4/1 28/4/1 27/4/1
f 30/4/1 28/4/1 29/4/1
f 35/4/1 32/4/1 31/4/1
f 36/4/1 32/4/1 35/4/1
f 37/4/1 34/4/1 33/4/1
f 38/4/1 34/4/1 37/4/1
f 39/5/1 36/5/1 35/5/1
f 40/5/1 36/5/1 39/5/1
f 41/5/1 38/5/1 37/5/1
f 42/5/1 38/5/1 41/5/1
f 43/4/1 40/4/1 39/4/1
f 44/4/1 40/4/1 43/4/1
f 45/4/1 42/4/1 41/4/1
f 46/4/1 42/4/1 45/4/1
f 49/4/1 48/4/1 47/4/1
f 50/4/1 48/4/1 49/4/1
f 53/5/1 52/5/1 51/5/1
f 54/5/1 52/5/1 53/5/1
f 55/3/2 56/3/2 57/3/2
f 57/3/2 56/3/2 58/3/2
f 59/1/2 60/1/2 61/1/2
f 61/1/2 60/1/2 62/1/2
f 63/1/2 64/1/2 65/1/2
f 65/1/2 64/1/2 66/1/2
f 67/6/2 68/6/2 69/6/2
f 69/6/2 68/6/2 70/6/2
f 71/4/2 72/4/2 73/4/2
f 73/4/2 72/4/2 74/4/2
f 75/4/2 76/4/2 77/4/2
f 77/4/2 76/4/2 78/4/2
f 79/4/2 80/4/2 83/4/2
f 83/4/2 80/4/2 84/4/2
f 81/4/2 82/4/2 85/4/2
f 85/4/2 82/4/2 86/4/2
f 83/5/2 84/5/2 87/5/2
f 87/5/2 84/5/2 88/5/2
f 85/5/2 86/5/2 89/5/2
f 89/5/2 86/5/2 90/5/2
f 87/4/2 88/4/2 91/4/2
f 88/5/2 89/5/2 92/5/2
f 91/4/2 88/4/2 92/4/2
f 89/4/2 90/4/2 93/4/2
f 92/5/2 89/5/2 93/5/2
f 93/4/2 90/4/2 94/4/2
f 95/5/2 96/5/2 97/5/2
f 97/5/2 96/5/2 98/5/2
f 99/4/2 100/4/2 101/4/2
f 101/4/2 100/4/2 102/4/2
f 101/3/2 102/3/2 103/3/2
f 103/3/2 102/3/2 104/3/2
f 103/4/2 104/4/2 105/4/2
f 105/4/2 104/4/2 106/4/2
f 111/4/3 108/4/3 107/4/3
f 112/5/3 109/5/3 108/5/3
f 112/4/3 108/4/3 111/4/3
f 113/4/3 110/4/3 109/4/3
f 113/5/3 109/5/3 112/5/3
f 114/4/3 110/4/3 113/4/3
f 117/1/3 116/1/3 115/1/3
f 118/1/3 116/1/3 117/1/3
f 122/2/3 118/2/3 117/2/3
f 122/1/3 119/1/3 118/1/3
f 123/1/3 119/1/3 122/1/3
f 127/3/3 121/3/3 120/3/3
f 128/3/3 121/3/3 127/3/3
f 129/3/3 121/3/3 128/3/3
f 130/1/3 117/1/3 115/1/3
f 130/2/3 122/2/3 117/2/3
f 130/2/3 123/2/3 122/2/3
f 131/2/3 123/2/3 130/2/3
f 132/1/3 124/1/3 123/1/3
f 132/2/3 123/2/3 131/2/3
f 133/1/3 124/1/3 132/1/3
f 134/4/3 126/4/3 125/4/3
f 135/3/3 128/3/3 127/3/3
f 135/3/3 127/3/3 126/3/3
f 136/3/3 128/3/3 135/3/3
f 137/1/3 131/1/3 130/1/3
f 137/1/3 130/1/3 115/1/3
f 138/2/3 133/2/3 132/2/3
f 138/1/3 131/1/3 137/1/3
f 138/2/3 132/2/3 131/2/3
f 139/2/3 133/2/3 138/2/3
f 140/4/3 126/4/3 134/4/3
f 140/3/3 135/3/3 126/3/3
f 141/4/3 136/4/3 135/4/3
f 141/3/3 135/3/3 140/3/3
f 142/4/3 136/4/3 141/4/3
f 144/1/3 139/1/3 138/1/3
f 145/2/3 133/2/3 139/2/3
f 145/1/3 139/1/3 144/1/3
f 146/1/3 134/1/3 133/1/3
f 146/2/3 133/2/3 145/2/3
f 147/4/3 142/4/3 141/4/3
f 147/4/3 140/4/3 134/4/3
f 147/4/3 143/4/3 142/4/3
f 147/4/3 141/4/3 140/4/3
f 148/4/3 143/4/3 147/4/3
f 149/4/3 143/4/3 148/4/3
f 150/4/3 143/4/3 149/4/3
f 151/1/3 146/1/3 145/1/3
f 152/1/3 134/1/3 146/1/3
f 152/1/3 146/1/3 151/1/3
f 153/4/3 147/4/3 134/4/3
f 153/1/3 134/1/3 152/1/3
f 154/4/3 152/4/3 151/4/3
f 154/6/3 153/6/3 152/6/3
f 155/4/3 147/4/3 153/4/3
f 155/6/3 153/6/3 154/6/3
f 156/4/3 154/4/3 151/4/3
f 157/4/3 154/4/3 156/4/3
f 158/4/3 147/4/3 155/4/3
f 159/4/3 158/4/3 157/4/3
f 160/4/3 147/4/3 158/4/3
f 160/4/3 158/4/3 159/4/3
f 161/4/3 147/4/3 160/4/3
f 164/4/3 163/4/3 162/4/3
f 166/4/3 164/4/3 162/4/3
f 166/5/3 165/5/3 164/5/3
f 167/5/3 165/5/3 166/5/3
f 168/4/3 161/4/3 160/4/3
f 169/3/3 162/3/3 161/3/3
f 169/4/3 161/4/3 168/4/3
f 170/4/3 166/4/3 162/4/3
f 170/3/3 162/3/3 169/3/3
f 171/4/3 166/4/3 170/4/3
f 172/1/4 173/1/4 174/1/4
f 174/1/4 173/1/4 175/1/4
f 174/2/4 175/2/4 179/2/4
f 175/1/4 176/1/4 179/1/4
f 179/1/4 176/1/4 180/1/4
f 177/3/4 178/3/4 184/3/4
f 184/3/4 178/3/4 185/3/4
f 185/3/4 178/3/4 186/3/4
f 172/1/4 174/1/4 187/1/4
f 174/2/4 179/2/4 187/2/4
f 179/2/4 180/2/4 187/2/4
f 187/2/4 180/2/4 188/2/4
f 180/1/4 181/1/4 189/1/4
f 188/2/4 180/2/4 189/2/4
f 189/1/4 181/1/4 190/1/4
f 182/4/4 183/4/4 191/4/4
f 184/3/4 185/3/4 192/3/4
f 183/3/4 184/3/4 192/3/4
f 192/3/4 185/3/4 193/3/4
f 187/1/4 188/1/4 194/1/4
f 172/1/4 187/1/4 194/1/4
f 189/2/4 190/2/4 195/2/4
f 194/1/4 188/1/4 195/1/4
f 188/2/4 189/2/4 195/2/4
f 195/2/4 190/2/4 196/2/4
f 191/4/4 183/4/4 197/4/4
f 183/3/4 192/3/4 197/3/4
f 192/4/4 193/4/4 198/4/4
f 197/3/4 192/3/4 198/3/4
f 198/4/4 193/4/4 199/4/4
f 195/1/4 196/1/4 201/1/4
f 196/2/4 190/2/4 202/2/4
f 201/1/4 196/1/4 202/1/4
f 190/1/4 191/1/4 203/1/4
f 202/2/4 190/2/4 203/2/4
f 198/4/4 199/4/4 204/4/4
f 191/4/4 197/4/4 204/4/4
f 199/4/4 200/4/4 204/4/4
f 197/4/4 198/4/4 204/4/4
f 204/4/4 200/4/4 205/4/4
f 205/4/4 200/4/4 206/4/4
f 206/4/4 200/4/4 207/4/4
f 202/1/4 203/1/4 208/1/4
f 203/1/4 191/1/4 209/1/4
f 208/1/4 203/1/4 209/1/4
f 191/4/4 204/4/4 210/4/4
f 209/1/4 191/1/4 210/1/4
f 208/4/4 209/4/4 211/4/4
f 209/6/4 210/6/4 211/6/4
f 210/4/4 204/4/4 212/4/4
f 211/6/4 210/6/4 212/6/4
f 208/4/4 211/4/4 213/4/4
f 213/4/4 211/4/4 214/4/4
f 212/4/4 204/4/4 215/4/4
f 214/4/4 215/4/4 216/4/4
f 215/4/4 204/4/4 217/4/4
f 216/4/4 215/4/4 217/4/4
f 217/4/4 204/4/4 218/4/4
f 219/4/4 220/4/4 221/4/4
f 219/4/4 221/4/4 223/4/4
f 221/5/4 222/5/4 223/5/4
f 223/5/4 222/5/4 224/5/4
f 217/4/4 218/4/4 225/4/4
f 218/3/4 219/3/4 226/3/4
f 225/4/4 218/4/4 226/4/4
f 219/4/4 223/4/4 227/4/4
f 226/3/4 219/3/4 227/3/4
f 227/4/4 223/4/4 228/4/4
f 229/4/4 230/4/4 233/4/4
f 230/5/4 231/5/4 234/5/4
f 233/4/4 230/4/4 234/4/4
f 231/4/4 232/4/4 235/4/4
f 234/5/4 231/5/4 235/5/4
f 235/4/4 232/4/4 236/4/4
f 239/1/5 238/1/5 237/1/5
f 240/1/5 238/1/5 239/1/5
f 243/1/5 242/1/5 241/1/5
f 244/1/5 242/1/5 243/1/5
f 248/1/5 246/1/5 245/1/5
f 249/4/5 247/4/5 246/4/5
f 249/1/5 246/1/5 248/1/5
f 250/4/5 247/4/5 249/4/5
f 253/4/5 252/4/5 251/4/5
f 254/4/5 252/4/5 253/4/5
f 261/4/5 256/4/5 255/4/5
f 262/4/5 256/4/5 261/4/5
f 263/4/5 258/4/5 257/4/5
f 264/4/5 258/4/5 263/4/5
f 265/4/5 260/4/5 259/4/5
f 266/4/5 260/4/5 265/4/5
f 269/4/5 268/4/5 267/4/5
f 270/4/5 268/4/5 269/4/5
f 273/4/5 272/4/5 271/4/5
f 274/4/5 272/4/5 273/4/5
f 277/3/5 276/3/5 275/3/5
f 278/3/5 276/3/5 277/3/5
f 279/1/6 280/1/6 281/1/6
f 281/1/6 280/1/6 282/1/6
f 283/1/6 284/1/6 285/1/6
f 285/1/6 284/1/6 286/1/6
f 287/1/6 288/1/6 291/1/6
f 291/1/6 288/1/6 292/1/6
f 289/4/6 290/4/6 293/4/6
f 293/4/6 290/4/6 294/4/6
f 295/3/6 296/3/6 302/3/6
f 296/4/6 297/4/6 303/4/6
f 302/3/6 296/3/6 303/3/6
f 303/4/6 297/4/6 304/4/6
f 298/4/6 299/4/6 305/4/6
f 305/4/6 299/4/6 306/4/6
f 300/4/6 301/4/6 307/4/6
f 307/4/6 301/4/6 308/4/6
f 309/4/6 310/4/6 314/4/6
f 314/4/6 310/4/6 315/4/6
f 311/3/6 312/3/6 318/3/6
f 318/3/6 312/3/6 319/3/6
f 313/4/6 314/4/6 320/4/6
f 314/5/6 315/5/6 321/5/6
f 320/4/6 314/4/6 321/4/6
f 321/5/6 315/5/6 322/5/6
f 316/5/6 317/5/6 323/5/6
f 323/5/6 317/5/6 324/5/6
f 321/4/6 322/4/6 325/4/6
f 325/4/6 322/4/6 326/4/6
